<?xml version="1.0" encoding="UTF-8"?>
<svg id="Layer_1" data-name="Layer 1" xmlns="http://www.w3.org/2000/svg" viewBox="0 0 960 960">
  <defs>
    <style>
      .cls-1 {
        fill: #26b15d;
      }

      .cls-1, .cls-2, .cls-3, .cls-4 {
        stroke-width: 0px;
      }

      .cls-3 {
        fill: #fff;
      }

      .cls-4 {
        fill: #00c252;
      }
    </style>
  </defs>
  <g>
    <g>
      <path class="cls-2" d="m483.65,43.51c50.66,0,91.71,33.97,91.71,75.94s-41.05,67.44-91.71,67.44c-49.95-1.01-84.73-17.29-104.45-48.84,10.62-59.86,45.5-91.31,104.45-94.54h0Zm-3.44,47.22c-29.12,2.93-46.92,16.79-53.49,41.56,8.9,7.79,26.69,12.13,53.49,13.04,26.9-.4,43.17-8.29,43.48-26.49-1.72-20.12-21.23-28.92-43.48-28.11h0Z"/>
      <path class="cls-4" d="m375.36,157.97c14.96,43.07,56.42,67.04,98.99,67.04,35.29,0,58.75-15.27,70.98-38.32l39.54,24.77c-13.75,33.77-54.7,58.24-102.93,58.24-59.66,0-110.72-40.14-106.57-110.01v-1.72h0Z"/>
    </g>
    <g>
      <path class="cls-2" d="m378.15,406.35c14.61,18.09,28.51,17.73,39.77,12.82,10.31-4.55,15.7-16.65,13.9-30.19-.24.12-.72.12-.72.36-6.59,16.06-23.24,18.33-36.3,14.74-11.62-3.12-17.61-11.5-19.41-23-.6-4.19-.96-8.51-.96-12.82-.12-17.37,0-34.62,0-52.35h20.72c.12,1.56.24,3.23.24,4.91v42.4c0,3,.24,5.99.72,8.99,1.68,11.26,8.62,15.69,19.88,12.7,9.11-2.4,15.21-10.78,15.82-23.12.6-13.18.48-26.35.6-39.53v-6.47h20.12c.24.72.36,1.44.48,2.28,0,25.76.6,51.51-.24,77.27-1.08,30.43-26.96,48.99-56.9,41.93-9.94-2.4-19.05-6.35-26.24-13.9-2.16-2.28-2.52-3.95-.24-6.47,3.11-3.12,5.63-6.71,8.74-10.54h0Z"/>
      <path class="cls-2" d="m253.33,316.87v13.18c-6.47-9.34-15.69-15.21-25.99-15.21-19.29,0-34.98,20.72-34.98,46.24s15.69,46.24,34.98,46.24c10.3,0,19.52-5.87,25.99-15.21v15.21h21.08v-90.44h-21.08Zm-20.01,71.4c-11.38,0-20.72-12.22-20.72-27.31s9.22-27.32,20.72-27.32,20.72,12.22,20.72,27.32-9.22,27.31-20.72,27.31h0Z"/>
      <path class="cls-2" d="m620.61,316.87v13.18c-6.35-9.34-15.69-15.21-25.99-15.21-19.29,0-34.98,20.72-34.98,46.24s15.7,46.24,34.98,46.24c10.3,0,19.53-5.87,25.99-15.21v15.21h21.08v-90.44h-21.08Zm-19.89,71.4c-11.38,0-20.72-12.22-20.72-27.31s9.22-27.32,20.72-27.32,20.72,12.22,20.72,27.32-9.34,27.31-20.72,27.31h0Z"/>
      <path class="cls-2" d="m841.03,316.87v13.18c-6.35-9.34-15.7-15.21-26-15.21-19.29,0-34.98,20.72-34.98,46.24s15.69,46.24,34.98,46.24c10.3,0,19.53-5.87,26-15.21v15.21h21.08v-90.44h-21.08Zm-19.89,71.4c-11.38,0-20.72-12.22-20.72-27.31s9.22-27.32,20.72-27.32,20.72,12.22,20.72,27.32-9.34,27.31-20.72,27.31h0Z"/>
      <polygon class="cls-2" points="657.27 407.31 678.83 407.31 678.83 314.83 657.27 314.83 657.27 407.31 657.27 407.31"/>
      <path class="cls-1" d="m681.35,292.79c0-7.34-5.96-13.3-13.3-13.3s-13.3,5.95-13.3,13.3,5.95,13.3,13.3,13.3,13.3-5.95,13.3-13.3h0Z"/>
      <path class="cls-2" d="m516.15,316.27c-10.07,0-19.17,5.27-25.64,13.77v-15.21h-21.2v125.18h21.2v-46.36c6.47,8.51,15.57,13.78,25.64,13.78,19.76,0,35.82-20.37,35.82-45.52s-16.05-45.64-35.82-45.64h0Zm-5.99,71.99c-8.98,0-16.53-6.83-19.65-16.65v-19.41c3.11-9.7,10.78-16.65,19.65-16.65,11.74,0,21.2,11.74,21.2,26.35s-9.58,26.36-21.2,26.36h0Z"/>
      <path class="cls-2" d="m347.24,347.53h0l15.09-7.91c-.24-6.95-4.91-13.3-10.78-17.01-5.87-3.71-12.94-5.27-20.01-5.99-11.26-1.2-23.36-.24-32.58,6.11-9.23,6.35-14.74,19.52-9.46,29.47,4.31,8.26,13.9,12.1,23,13.77,9.1,1.68,18.69,2.28,26.83,6.47,2.04,1.08,4.19,2.64,4.31,4.92.12,2.28-1.44,4.07-2.99,5.51-10.78,8.98-26.83,7.55-35.82-3.23-2.52-3.11-4.43-6.71-5.27-10.66l-16.65,8.74c-3.48,1.92,9.46,17.97,11.14,19.41,12.34,10.78,30.91,12.46,46.12,7.43,10.66-3.6,20.72-11.5,22.88-22.52,1.32-7.07-.72-14.37-5.51-19.76-5.15-5.63-12.7-8.27-20.25-9.83-7.55-1.56-15.09-2.04-22.4-4.31-3.11-.96-6.71-3.11-6.59-6.47.12-2.99,3.47-4.91,6.35-5.87,6.11-2.04,12.82-2.87,19.05-1.08,6.23,1.8,11.86,6.71,13.54,12.82h0Z"/>
      <path class="cls-2" d="m754.3,347.53h0l15.09-7.91c-.24-6.95-4.91-13.3-10.78-17.01-5.87-3.71-12.94-5.27-20.01-5.99-11.26-1.2-23.36-.24-32.58,6.11-9.22,6.35-14.73,19.52-9.46,29.47,4.31,8.26,13.89,12.1,23,13.77,9.1,1.68,18.69,2.28,26.83,6.47,2.04,1.08,4.19,2.64,4.31,4.92.12,2.28-1.44,4.07-2.99,5.51-10.78,8.98-26.84,7.55-35.82-3.23-2.52-3.11-4.43-6.71-5.27-10.66l-16.65,8.74c-3.47,1.92,9.46,17.97,11.14,19.41,12.34,10.78,30.9,12.46,46.12,7.43,10.66-3.6,20.72-11.5,22.88-22.52,1.32-7.07-.72-14.37-5.63-19.76-5.15-5.63-12.7-8.27-20.24-9.83-7.55-1.56-15.09-1.91-22.28-4.19-3.11-.96-6.71-3.11-6.59-6.47.12-2.99,3.47-4.91,6.35-5.87,6.11-2.04,12.82-2.87,19.05-1.08,6.23,1.8,11.86,6.59,13.54,12.7h0Z"/>
      <path class="cls-2" d="m174.38,330.52s-15.69-23.96-49.71-11.98c0,0-18.45,5.03-26.71,34.5,0,0,17.01,27.2,58.46,18.45,0,0,35.46-9.22,17.97-40.97h0Zm-22.28,23.96c-6.95,3.23-17.49,2.4-24.8.48-.48-.12-9.94-3.47-9.46-4.31,6.95-12.82,25.04-24.56,37.62-11.5,1.32,1.2,2.28,2.87,2.75,4.55,1.08,4.55-2.16,8.98-6.11,10.78h0Z"/>
      <path class="cls-1" d="m98.07,361.91s-4.07,32.11,25.76,42.65c29.83,10.54,53.31-8.74,60.25-20.72l-17.01-10.06s-13.3,27.55-51.51,9.7c0,0-13.9-8.15-17.49-21.57h0Z"/>
    </g>
  </g>
  <rect class="cls-2" y="480" width="960" height="480"/>
  <g>
    <g>
      <path class="cls-3" d="m483.89,521.88c50.66,0,91.71,33.97,91.71,75.94s-41.05,67.44-91.71,67.44c-49.95-1.01-84.73-17.29-104.45-48.84,10.62-59.86,45.5-91.31,104.45-94.54h0Zm-3.44,47.22c-29.12,2.93-46.92,16.79-53.49,41.56,8.9,7.79,26.69,12.13,53.49,13.04,26.9-.4,43.17-8.29,43.48-26.49-1.72-20.12-21.23-28.92-43.48-28.11h0Z"/>
      <path class="cls-3" d="m375.6,636.34c14.96,43.07,56.42,67.04,98.99,67.04,35.29,0,58.75-15.27,70.98-38.32l39.54,24.77c-13.75,33.77-54.7,58.24-102.93,58.24-59.66,0-110.72-40.14-106.57-110.01v-1.72h0Z"/>
    </g>
    <g>
      <path class="cls-3" d="m378.38,884.73c14.61,18.09,28.51,17.73,39.77,12.82,10.31-4.55,15.7-16.65,13.9-30.19-.24.12-.72.12-.72.36-6.59,16.06-23.24,18.33-36.3,14.74-11.62-3.12-17.61-11.5-19.41-23-.6-4.19-.96-8.51-.96-12.82-.12-17.37,0-34.62,0-52.35h20.72c.12,1.56.24,3.23.24,4.91v42.4c0,3,.24,5.99.72,8.99,1.68,11.26,8.62,15.69,19.88,12.7,9.11-2.4,15.21-10.78,15.82-23.12.6-13.18.48-26.35.6-39.53v-6.47h20.12c.24.72.36,1.44.48,2.28,0,25.76.6,51.51-.24,77.27-1.08,30.43-26.96,48.99-56.9,41.93-9.94-2.4-19.05-6.35-26.24-13.9-2.16-2.28-2.52-3.95-.24-6.47,3.11-3.12,5.63-6.71,8.74-10.54h0Z"/>
      <path class="cls-3" d="m253.56,795.24v13.18c-6.47-9.34-15.69-15.21-25.99-15.21-19.29,0-34.98,20.72-34.98,46.24s15.69,46.24,34.98,46.24c10.3,0,19.52-5.87,25.99-15.21v15.21h21.08v-90.44h-21.08Zm-20.01,71.4c-11.38,0-20.72-12.22-20.72-27.31s9.22-27.32,20.72-27.32,20.72,12.22,20.72,27.32-9.22,27.31-20.72,27.31h0Z"/>
      <path class="cls-3" d="m620.84,795.24v13.18c-6.35-9.34-15.69-15.21-25.99-15.21-19.29,0-34.98,20.72-34.98,46.24s15.7,46.24,34.98,46.24c10.3,0,19.53-5.87,25.99-15.21v15.21h21.08v-90.44h-21.08Zm-19.89,71.4c-11.38,0-20.72-12.22-20.72-27.31s9.22-27.32,20.72-27.32,20.72,12.22,20.72,27.32-9.34,27.31-20.72,27.31h0Z"/>
      <path class="cls-3" d="m841.26,795.24v13.18c-6.35-9.34-15.7-15.21-26-15.21-19.29,0-34.98,20.72-34.98,46.24s15.69,46.24,34.98,46.24c10.3,0,19.53-5.87,26-15.21v15.21h21.08v-90.44h-21.08Zm-19.89,71.4c-11.38,0-20.72-12.22-20.72-27.31s9.22-27.32,20.72-27.32,20.72,12.22,20.72,27.32-9.34,27.31-20.72,27.31h0Z"/>
      <polygon class="cls-3" points="657.5 885.68 679.06 885.68 679.06 793.2 657.5 793.2 657.5 885.68 657.5 885.68"/>
      <path class="cls-3" d="m681.58,771.16c0-7.34-5.96-13.3-13.3-13.3s-13.3,5.95-13.3,13.3,5.95,13.3,13.3,13.3,13.3-5.95,13.3-13.3h0Z"/>
      <path class="cls-3" d="m516.39,794.64c-10.07,0-19.17,5.27-25.64,13.77v-15.21h-21.2v125.18h21.2v-46.36c6.47,8.51,15.57,13.78,25.64,13.78,19.76,0,35.82-20.37,35.82-45.52s-16.05-45.64-35.82-45.64h0Zm-5.99,71.99c-8.98,0-16.53-6.83-19.65-16.65v-19.41c3.11-9.7,10.78-16.65,19.65-16.65,11.74,0,21.2,11.74,21.2,26.35s-9.58,26.36-21.2,26.36h0Z"/>
      <path class="cls-3" d="m347.48,825.91h0l15.09-7.91c-.24-6.95-4.91-13.3-10.78-17.01-5.87-3.71-12.94-5.27-20.01-5.99-11.26-1.2-23.36-.24-32.58,6.11-9.23,6.35-14.74,19.52-9.46,29.47,4.31,8.26,13.9,12.1,23,13.77,9.1,1.68,18.69,2.28,26.83,6.47,2.04,1.08,4.19,2.64,4.31,4.92.12,2.28-1.44,4.07-2.99,5.51-10.78,8.98-26.83,7.55-35.82-3.23-2.52-3.11-4.43-6.71-5.27-10.66l-16.65,8.74c-3.48,1.92,9.46,17.97,11.14,19.41,12.34,10.78,30.91,12.46,46.12,7.43,10.66-3.6,20.72-11.5,22.88-22.52,1.32-7.07-.72-14.37-5.51-19.76-5.15-5.63-12.7-8.27-20.25-9.83-7.55-1.56-15.09-2.04-22.4-4.31-3.11-.96-6.71-3.11-6.59-6.47.12-2.99,3.47-4.91,6.35-5.87,6.11-2.04,12.82-2.87,19.05-1.08,6.23,1.8,11.86,6.71,13.54,12.82h0Z"/>
      <path class="cls-3" d="m754.53,825.91h0l15.09-7.91c-.24-6.95-4.91-13.3-10.78-17.01-5.87-3.71-12.94-5.27-20.01-5.99-11.26-1.2-23.36-.24-32.58,6.11-9.22,6.35-14.73,19.52-9.46,29.47,4.31,8.26,13.89,12.1,23,13.77,9.1,1.68,18.69,2.28,26.83,6.47,2.04,1.08,4.19,2.64,4.31,4.92.12,2.28-1.44,4.07-2.99,5.51-10.78,8.98-26.84,7.55-35.82-3.23-2.52-3.11-4.43-6.71-5.27-10.66l-16.65,8.74c-3.47,1.92,9.46,17.97,11.14,19.41,12.34,10.78,30.9,12.46,46.12,7.43,10.66-3.6,20.72-11.5,22.88-22.52,1.32-7.07-.72-14.37-5.63-19.76-5.15-5.63-12.7-8.27-20.24-9.83-7.55-1.56-15.09-1.91-22.28-4.19-3.11-.96-6.71-3.11-6.59-6.47.12-2.99,3.47-4.91,6.35-5.87,6.11-2.04,12.82-2.87,19.05-1.08,6.23,1.8,11.86,6.59,13.54,12.7h0Z"/>
      <path class="cls-3" d="m174.62,808.9s-15.69-23.96-49.71-11.98c0,0-18.45,5.03-26.71,34.5,0,0,17.01,27.2,58.46,18.45,0,0,35.46-9.22,17.97-40.97h0Zm-22.28,23.96c-6.95,3.23-17.49,2.4-24.8.48-.48-.12-9.94-3.47-9.46-4.31,6.95-12.82,25.04-24.56,37.62-11.5,1.32,1.2,2.28,2.87,2.75,4.55,1.08,4.55-2.16,8.98-6.11,10.78h0Z"/>
      <path class="cls-3" d="m98.31,840.28s-4.07,32.11,25.76,42.65c29.83,10.54,53.31-8.74,60.25-20.72l-17.01-10.06s-13.3,27.55-51.51,9.7c0,0-13.9-8.15-17.49-21.57h0Z"/>
    </g>
  </g>
</svg>