<?xml version="1.0" encoding="UTF-8"?>
<svg id="Layer_1" data-name="Layer 1" xmlns="http://www.w3.org/2000/svg" viewBox="0 0 950 950">
  <defs>
    <style>
      .cls-1 {
        fill: #f26a2a;
      }

      .cls-1, .cls-2, .cls-3 {
        fill-rule: evenodd;
        stroke-width: 0px;
      }

      .cls-2 {
        fill: #f99d2f;
      }

      .cls-3 {
        fill: #ee232e;
      }
    </style>
  </defs>
  <g id="Components---Sprint-3">
    <g id="assets-_-logo-_-mastercard-_-symbol" data-name="assets-/-logo-/-mastercard-/-symbol">
      <polygon id="Fill-1" class="cls-1" points="360.05 676.24 589.34 676.24 589.34 262.34 360.05 262.34 360.05 676.24"/>
      <path id="Fill-2" class="cls-3" d="M374.61,469.29c0-83.97,39.14-158.76,100.09-206.95-44.58-35.25-100.82-56.28-161.95-56.28-144.72,0-262.03,117.85-262.03,263.23s117.31,263.23,262.03,263.23c61.13,0,117.37-21.03,161.95-56.28-60.95-48.2-100.09-122.98-100.09-206.95"/>
      <path id="Fill-4" class="cls-2" d="M890.49,632.4v-10.21h-2.66l-3.05,7.03-3.06-7.03h-2.66v10.21h1.87v-7.71l2.87,6.65h1.94l2.87-6.66v7.72h1.87ZM873.67,632.4v-8.47h3.41v-1.73h-8.66v1.73h3.4v8.47h1.86ZM898.68,469.29c0,145.38-117.32,263.23-262.03,263.23-61.13,0-117.38-21.03-161.95-56.28,60.95-48.19,100.09-122.98,100.09-206.95s-39.14-158.75-100.09-206.95c44.57-35.25,100.82-56.28,161.95-56.28,144.71,0,262.03,117.85,262.03,263.23h0Z"/>
    </g>
  </g>
</svg>